<svg width="18" height="17" viewBox="0 0 18 17" fill="none" xmlns="http://www.w3.org/2000/svg">
<path d="M15.0927 3.83544C15.0927 4.53016 14.4965 5.09335 13.761 5.09335C13.0255 5.09335 12.4293 4.53016 12.4293 3.83544C12.4293 3.14071 13.0255 2.57753 13.761 2.57753C14.4965 2.57753 15.0927 3.14071 15.0927 3.83544Z" fill="black"/>
<path fill-rule="evenodd" clip-rule="evenodd" d="M8.87807 12.6408C11.3297 12.6408 13.3171 10.7635 13.3171 8.44778C13.3171 6.13203 11.3297 4.25474 8.87807 4.25474C6.42646 4.25474 4.43904 6.13203 4.43904 8.44778C4.43904 10.7635 6.42646 12.6408 8.87807 12.6408ZM8.87807 10.9636C10.349 10.9636 11.5415 9.83723 11.5415 8.44778C11.5415 7.05833 10.349 5.93196 8.87807 5.93196C7.40711 5.93196 6.21465 7.05833 6.21465 8.44778C6.21465 9.83723 7.40711 10.9636 8.87807 10.9636Z" fill="black"/>
<path fill-rule="evenodd" clip-rule="evenodd" d="M0 8.11234C0 5.29435 0 3.88536 0.580591 2.80903C1.09129 1.86227 1.9062 1.09252 2.90851 0.610123C4.04798 0.0617065 5.53964 0.0617065 8.52295 0.0617065H9.2332C12.2165 0.0617065 13.7082 0.0617065 14.8476 0.610123C15.85 1.09252 16.6649 1.86227 17.1756 2.80903C17.7561 3.88536 17.7561 5.29435 17.7561 8.11234V8.78322C17.7561 11.6012 17.7561 13.0102 17.1756 14.0865C16.6649 15.0333 15.85 15.803 14.8476 16.2854C13.7082 16.8339 12.2165 16.8339 9.2332 16.8339H8.52295C5.53964 16.8339 4.04798 16.8339 2.90851 16.2854C1.9062 15.803 1.09129 15.0333 0.580591 14.0865C0 13.0102 0 11.6012 0 8.78322V8.11234ZM8.52295 1.73892H9.2332C10.7542 1.73892 11.7881 1.74023 12.5873 1.8019C13.3657 1.86198 13.7638 1.97088 14.0415 2.10453C14.7097 2.42613 15.253 2.93929 15.5935 3.57047C15.735 3.83279 15.8503 4.20883 15.9139 4.94414C15.9792 5.69904 15.9805 6.67567 15.9805 8.11234V8.78322C15.9805 10.2199 15.9792 11.1965 15.9139 11.9514C15.8503 12.6867 15.735 13.0628 15.5935 13.3251C15.253 13.9563 14.7097 14.4694 14.0415 14.791C13.7638 14.9247 13.3657 15.0336 12.5873 15.0937C11.7881 15.1553 10.7542 15.1566 9.2332 15.1566H8.52295C7.002 15.1566 5.96807 15.1553 5.16888 15.0937C4.39043 15.0336 3.99233 14.9247 3.71462 14.791C3.04641 14.4694 2.50314 13.9563 2.16268 13.3251C2.02118 13.0628 1.90589 12.6867 1.84229 11.9514C1.777 11.1965 1.77561 10.2199 1.77561 8.78322V8.11234C1.77561 6.67567 1.777 5.69904 1.84229 4.94414C1.90589 4.20883 2.02118 3.83279 2.16268 3.57047C2.50314 2.93929 3.04641 2.42613 3.71462 2.10453C3.99233 1.97088 4.39043 1.86198 5.16888 1.8019C5.96807 1.74023 7.002 1.73892 8.52295 1.73892Z" fill="black"/>
</svg>
