<svg width="20" height="17" viewBox="0 0 20 17" fill="none" xmlns="http://www.w3.org/2000/svg">
<path d="M6.27004 16.5577C3.96213 16.5577 1.81078 15.9145 0 14.8046C1.53741 14.8999 4.25059 14.6716 5.93818 13.1291C3.39949 13.0175 2.25458 11.1517 2.10525 10.3543C2.32095 10.434 3.34971 10.5297 3.93045 10.3065C1.01013 9.60479 0.562121 7.14893 0.661677 6.39942C1.20924 6.7662 2.13843 6.89378 2.50348 6.86188C-0.21774 4.99607 0.761234 2.18937 1.24242 1.58338C3.19527 4.17598 6.12197 5.63209 9.74269 5.71308C9.67442 5.42617 9.63837 5.12745 9.63837 4.82065C9.63837 2.61881 11.4956 0.833862 13.7866 0.833862C14.9836 0.833862 16.0622 1.32113 16.8193 2.10055C17.6192 1.92093 18.823 1.50046 19.4115 1.13686C19.1149 2.15748 18.1914 3.00888 17.6327 3.32444C17.6282 3.31366 17.6374 3.33518 17.6327 3.32444C18.1234 3.25331 19.4512 3.0088 19.9757 2.66778C19.7163 3.24116 18.7372 4.19449 17.9337 4.72821C18.0832 11.0462 13.0387 16.5577 6.27004 16.5577Z" fill="#0B0B0B"/>
</svg>
